<svg xmlns="http://www.w3.org/2000/svg" width="505" height="494" viewBox="0 0 505 494" version="1.1"><path d="M 14 18.953 C 14 19.478, 16.638 24.315, 19.862 29.703 C 26.020 39.994, 61.471 100.465, 74.108 122.233 L 81.500 134.965 90.833 134.983 C 95.967 134.992, 100.017 134.616, 99.833 134.147 C 99.650 133.678, 84.229 107.353, 65.564 75.647 L 31.627 18 22.814 18 C 17.891 18, 14 18.421, 14 18.953 M 474.273 19.250 C 473.739 19.938, 466.858 31.525, 458.982 45 C 451.106 58.475, 437.380 81.875, 428.479 97 C 419.577 112.125, 396.639 151.275, 377.505 184 C 358.371 216.725, 337.675 252.050, 331.515 262.500 C 325.355 272.950, 318.743 284.200, 316.823 287.500 C 314.903 290.800, 303.301 310.600, 291.041 331.500 C 266.182 373.876, 267.322 371.886, 268.703 370.500 C 270.771 368.425, 328.362 271.746, 350.016 234 C 392.394 160.126, 419.898 114.063, 422.166 113.165 C 422.631 112.980, 422.777 112.449, 422.490 111.984 C 422.203 111.519, 422.385 110.880, 422.896 110.564 C 423.967 109.902, 423.816 111.904, 422.655 113.763 C 422.221 114.458, 421.828 116.355, 421.782 117.979 C 421.735 119.603, 421.298 120.684, 420.809 120.382 C 420.030 119.900, 420.388 122.973, 421.552 126.750 C 421.764 127.438, 421.614 128.001, 421.219 128.002 C 420.823 128.004, 420.450 129.466, 420.389 131.252 C 420.281 134.427, 420.303 134.444, 421.389 132.032 C 422 130.674, 423.512 128.472, 424.749 127.137 C 425.986 125.802, 428.597 122.301, 430.552 119.355 C 432.507 116.410, 434.278 114, 434.486 114 C 435.591 114, 404.353 168.463, 378.278 212 C 365.925 232.625, 351.644 256.475, 346.542 265 C 341.440 273.525, 327.472 297.600, 315.502 318.500 C 303.532 339.400, 290.358 362.350, 286.226 369.500 C 282.095 376.650, 278.527 382.837, 278.298 383.250 C 278.069 383.663, 278.088 384, 278.339 384 C 278.590 384, 282.285 378.037, 286.549 370.750 C 290.813 363.462, 320.618 312.725, 352.782 258 C 384.946 203.275, 421.037 141.850, 432.985 121.500 C 444.932 101.150, 463.127 70.174, 473.418 52.665 C 483.709 35.155, 492.373 20.193, 492.671 19.415 C 493.114 18.260, 491.564 18, 484.229 18 C 478.227 18, 474.922 18.415, 474.273 19.250 M 15.255 19.708 C 16.257 21.576, 24.257 35.047, 48.091 75 C 77.622 124.503, 75.690 121.243, 79.409 127.840 L 82.318 133 89.740 133 L 97.163 133 95.183 129.750 C 94.094 127.963, 80.610 104.675, 65.220 78 C 49.829 51.325, 35.916 27.250, 34.302 24.500 L 31.367 19.500 23.099 19.208 C 18.551 19.048, 15.021 19.273, 15.255 19.708 M 23.038 27.750 C 29.685 39.587, 39.526 54.793, 40.250 54.346 C 40.662 54.091, 41.036 54.696, 41.079 55.691 C 41.122 56.686, 41.377 56.962, 41.644 56.305 C 41.911 55.648, 41.635 54.186, 41.030 53.055 C 40.226 51.553, 40.233 50.433, 41.057 48.893 C 41.913 47.293, 41.886 46.510, 40.945 45.643 C 39.988 44.760, 39.843 44.891, 40.309 46.218 C 40.641 47.163, 40.585 48.139, 40.184 48.386 C 39.784 48.634, 39.424 46.736, 39.385 44.168 C 39.330 40.520, 38.247 37.588, 34.428 30.750 L 29.540 22 24.675 22 L 19.809 22 23.038 27.750 M 57 149.371 C 57 150.125, 65.837 165.763, 76.638 184.121 C 87.439 202.479, 122.944 262.950, 155.538 318.500 C 245.162 471.243, 251.865 482.500, 253.200 482.500 C 253.880 482.500, 259.353 474.175, 265.363 464 C 271.373 453.825, 283.351 433.575, 291.981 419 C 308.130 391.726, 310.939 386.776, 309.286 388.500 C 308.759 389.050, 302.112 399.850, 294.516 412.500 C 277.864 440.229, 274.659 445.292, 267.613 455.010 C 264.618 459.140, 260.271 465.665, 257.953 469.510 C 255.635 473.354, 253.639 476.622, 253.516 476.770 C 253.394 476.919, 251.157 473.364, 248.547 468.871 C 245.936 464.378, 242.945 459.784, 241.900 458.662 C 240.855 457.541, 240 456.278, 240 455.857 C 240 455.436, 238.974 454.058, 237.719 452.795 C 232.508 447.550, 206.395 404.171, 166.508 334.500 C 150.135 305.900, 121.557 257.075, 103.002 226 C 58.627 151.680, 58.016 150.624, 58.880 149.738 C 59.289 149.320, 77.803 149.095, 100.024 149.238 L 140.424 149.500 143.088 153.500 C 145.951 157.798, 168.217 195.888, 190.146 234 C 197.582 246.925, 206.256 262, 209.420 267.500 C 216.237 279.350, 222.165 289.358, 231.634 305 C 235.463 311.325, 239.781 318.552, 241.229 321.060 L 243.861 325.619 240.373 331.810 C 238.454 335.214, 236.573 337.991, 236.192 337.980 C 235.811 337.970, 228.300 325.291, 219.500 309.806 C 210.700 294.321, 199.129 274.418, 193.787 265.576 C 188.445 256.734, 183.465 248.375, 182.719 247 C 181.974 245.625, 171.671 228.300, 159.825 208.500 C 147.979 188.700, 137.054 170.363, 135.548 167.750 L 132.810 163 107.905 163 C 88.646 163, 83.001 163.283, 83.003 164.250 C 83.004 164.938, 84.642 168.200, 86.642 171.500 C 88.642 174.800, 98.160 191.225, 107.794 208 C 137.827 260.298, 155.854 291.033, 181.991 334.500 C 213.937 387.628, 225.452 407.252, 241.197 435.408 C 246.089 444.158, 249.852 451.944, 249.558 452.710 C 249.264 453.477, 249.420 453.859, 249.905 453.559 C 250.390 453.259, 251.068 454.136, 251.412 455.507 C 252.334 459.177, 254.674 458.541, 256.031 454.250 C 257.475 449.684, 264.229 436.919, 276.800 415 C 287.890 395.661, 287.603 396.190, 286.295 397.500 C 285.746 398.050, 278.204 410.537, 269.535 425.250 C 260.865 439.962, 253.486 451.983, 253.136 451.963 C 252.786 451.942, 249.308 446.429, 245.408 439.713 C 241.507 432.996, 223.232 401.850, 204.798 370.500 C 166.522 305.408, 94.532 182.748, 88.825 172.900 C 86.721 169.270, 85 165.774, 85 165.132 C 85 164.267, 91.125 164.033, 108.633 164.232 L 132.266 164.500 148.480 192 C 157.397 207.125, 180.530 246.500, 199.886 279.500 C 219.242 312.500, 235.586 339.500, 236.207 339.500 C 237.546 339.500, 244.828 328.185, 244.930 325.946 C 244.968 325.092, 242.366 319.917, 239.147 314.446 C 235.928 308.976, 213.134 270.075, 188.494 228 C 163.854 185.925, 143.018 150.713, 142.192 149.750 C 140.806 148.135, 137.459 148, 98.845 148 C 64.066 148, 57 148.232, 57 149.371 M 360.190 156.250 C 355.199 164.577, 297.200 263.645, 296.230 265.500 C 295.881 266.167, 296.036 266.167, 296.696 265.500 C 297.240 264.950, 311.090 242, 327.473 214.500 C 343.856 187, 359.274 161.238, 361.734 157.250 L 366.207 150 373.163 150 C 376.988 150, 379.921 150.338, 379.680 150.750 C 379.439 151.162, 375.301 158.475, 370.484 167 C 365.666 175.525, 351.604 200.050, 339.234 221.500 C 313.818 265.574, 315.353 262.845, 316.730 261.500 C 317.515 260.733, 364.223 181.610, 380.259 153.882 C 381.728 151.342, 382.646 148.979, 382.298 148.632 C 381.951 148.284, 377.947 148, 373.400 148 L 365.134 148 360.190 156.250 M 401.961 199.750 C 385.289 228.213, 359.878 271.525, 345.492 296 C 315.296 347.375, 294.971 382.065, 294.226 383.500 C 293.880 384.167, 294.046 384.167, 294.725 383.500 C 296.407 381.848, 361.355 272.815, 380.501 239.500 C 420.604 169.721, 431.675 150.947, 433.417 149.765 C 434.952 148.724, 448 148.819, 448 149.872 C 448 151.231, 439.374 166.095, 412.524 211 C 374.594 274.437, 370.726 281.027, 341.500 332 C 326.521 358.125, 313.261 381.188, 312.034 383.250 C 310.807 385.313, 310.026 387, 310.299 387 C 310.918 387, 310.818 387.169, 431.356 181.724 C 441.610 164.247, 450 149.510, 450 148.974 C 450 148.415, 446.221 148, 441.137 148 L 432.274 148 401.961 199.750 M 65.011 155.656 C 66.271 157.770, 68.149 160.400, 69.184 161.500 C 70.761 163.176, 71.210 163.267, 71.958 162.062 C 72.531 161.139, 72.341 159.897, 71.425 158.590 C 69.774 156.232, 69.550 154.604, 71 155.500 C 71.550 155.840, 71.993 155.754, 71.985 155.309 C 71.950 153.461, 70.279 152.480, 66.610 152.156 L 62.721 151.812 65.011 155.656 M 372.618 155.160 C 372.270 156.898, 372.214 158.548, 372.493 158.826 C 372.772 159.105, 373 158.725, 373 157.981 C 373 157.237, 373.978 155.587, 375.174 154.314 C 377.328 152.022, 377.329 152, 375.299 152 C 373.799 152, 373.081 152.847, 372.618 155.160 M 432.301 155.750 C 424.659 169.614, 422.009 175.205, 422.615 176.186 C 423.043 176.879, 422.857 177.030, 422.131 176.581 C 421.260 176.043, 421.129 176.956, 421.629 180.080 C 422.120 183.153, 421.990 184.112, 421.152 183.594 C 420.479 183.178, 420 183.504, 420 184.379 C 420 185.259, 420.824 185.814, 422 185.725 C 423.100 185.642, 424 185.252, 424 184.859 C 424 184.465, 424.593 183.548, 425.318 182.821 C 426.639 181.497, 444 153.263, 444 152.438 C 444 152.197, 441.833 152, 439.184 152 C 434.653 152, 434.246 152.222, 432.301 155.750 M 107.635 177.782 C 107.116 178.621, 116.642 195.012, 207.429 349.500 C 223.644 377.092, 235.647 396.500, 236.495 396.500 C 237.291 396.500, 240.795 391.550, 244.283 385.500 C 247.771 379.450, 256.043 365.275, 262.667 354 C 311.495 270.879, 306.778 279.010, 305.303 280.500 C 304.759 281.050, 294.916 297.250, 283.429 316.500 C 271.943 335.750, 258.472 357.575, 253.494 365 C 248.516 372.425, 242.735 381.313, 240.649 384.750 C 238.562 388.188, 236.683 391, 236.472 391 C 236.117 391, 230.915 382.650, 225.051 372.669 C 223.704 370.376, 221.932 367.825, 221.114 367 C 216.237 362.080, 182.807 306.503, 140.359 232.749 C 123.662 203.736, 110 179.753, 110 179.455 C 110 179.157, 113.230 179.045, 117.179 179.206 L 124.358 179.500 153.538 228.276 C 169.587 255.102, 183.088 277.377, 183.540 277.776 C 183.992 278.174, 183.325 276.700, 182.058 274.500 C 176.409 264.691, 143.764 208.917, 134.795 193.750 L 124.889 177 116.503 177 C 111.891 177, 107.901 177.352, 107.635 177.782 M 314.702 263.750 C 314.473 264.163, 313.022 266.750, 311.478 269.500 C 309.934 272.250, 309.135 274.050, 309.702 273.500 C 311.149 272.097, 316.306 263, 315.654 263 C 315.359 263, 314.931 263.337, 314.702 263.750 M 294.702 267.750 C 294.473 268.163, 293.022 270.750, 291.478 273.500 C 289.934 276.250, 289.135 278.050, 289.702 277.500 C 291.149 276.097, 296.306 267, 295.654 267 C 295.359 267, 294.931 267.337, 294.702 267.750 M 189.214 288 C 190.613 290.475, 199.495 306, 208.953 322.500 C 218.410 339, 228.252 356.858, 230.824 362.184 C 233.396 367.510, 235.833 371.898, 236.241 371.934 C 236.648 371.970, 239.184 367.613, 241.876 362.250 C 244.568 356.887, 253.878 340.125, 262.565 325 C 281.144 292.654, 283.643 288.164, 282.325 289.500 C 281.783 290.050, 276.466 298.825, 270.510 309 C 250.811 342.654, 236.878 366, 236.493 366 C 236.033 366, 225.641 348.617, 204.511 312.500 C 195.822 297.650, 188.254 285.050, 187.692 284.500 C 187.131 283.950, 187.815 285.525, 189.214 288 M 292.702 385.750 C 292.473 386.163, 291.022 388.750, 289.478 391.500 C 287.934 394.250, 287.135 396.050, 287.702 395.500 C 289.149 394.097, 294.306 385, 293.654 385 C 293.359 385, 292.931 385.337, 292.702 385.750 M 266.303 392.250 C 269.490 397.655, 271.170 397.964, 273.282 393.534 C 275.329 389.241, 274.675 388.794, 272.500 393 C 271.647 394.650, 270.593 396, 270.158 396 C 269.724 396, 268.357 394.200, 267.120 392 C 265.884 389.800, 264.630 388, 264.334 388 C 264.039 388, 264.925 389.913, 266.303 392.250" stroke="none" fill="#8f5722" fill-rule="evenodd"/><path d="M 15.255 19.708 C 16.257 21.576, 24.257 35.047, 48.091 75 C 77.622 124.503, 75.690 121.243, 79.409 127.840 L 82.318 133 89.740 133 L 97.163 133 95.183 129.750 C 94.094 127.963, 80.610 104.675, 65.220 78 C 49.829 51.325, 35.916 27.250, 34.302 24.500 L 31.367 19.500 23.099 19.208 C 18.551 19.048, 15.021 19.273, 15.255 19.708 M 23.038 27.750 C 29.685 39.587, 39.526 54.793, 40.250 54.346 C 40.662 54.091, 41.036 54.696, 41.079 55.691 C 41.122 56.686, 41.377 56.962, 41.644 56.305 C 41.911 55.648, 41.635 54.186, 41.030 53.055 C 40.226 51.553, 40.233 50.433, 41.057 48.893 C 41.913 47.293, 41.886 46.510, 40.945 45.643 C 39.988 44.760, 39.843 44.891, 40.309 46.218 C 40.641 47.163, 40.585 48.139, 40.184 48.386 C 39.784 48.634, 39.424 46.736, 39.385 44.168 C 39.330 40.520, 38.247 37.588, 34.428 30.750 L 29.540 22 24.675 22 L 19.809 22 23.038 27.750 M 422.500 111 C 422.160 111.550, 422.246 112.007, 422.691 112.015 C 423.136 112.024, 423.008 112.361, 422.408 112.765 C 419.507 114.717, 392.455 160.020, 350.016 234 C 332.135 265.169, 326.933 273.971, 292.806 330.794 C 275.863 359.005, 262 382.366, 262 382.705 C 262 383.870, 269.415 396, 270.127 396 C 270.887 396, 280.799 379.069, 315.496 318.500 C 327.469 297.600, 341.440 273.525, 346.542 265 C 351.644 256.475, 365.925 232.625, 378.278 212 C 404.353 168.463, 435.591 114, 434.486 114 C 434.278 114, 432.507 116.410, 430.552 119.355 C 428.597 122.301, 425.986 125.802, 424.749 127.137 C 423.512 128.472, 422 130.674, 421.389 132.032 C 420.303 134.444, 420.281 134.427, 420.389 131.252 C 420.450 129.466, 420.823 128.004, 421.219 128.002 C 421.614 128.001, 421.764 127.438, 421.552 126.750 C 420.388 122.973, 420.030 119.900, 420.809 120.382 C 421.298 120.684, 421.735 119.603, 421.782 117.979 C 421.828 116.355, 422.221 114.458, 422.655 113.763 C 423.517 112.383, 424.033 110, 423.471 110 C 423.277 110, 422.840 110.450, 422.500 111 M 58.654 149.751 C 58.080 150.680, 59.987 153.958, 103.002 226 C 121.557 257.075, 150.135 305.900, 166.508 334.500 C 206.395 404.171, 232.508 447.550, 237.719 452.795 C 238.974 454.058, 240 455.436, 240 455.857 C 240 456.278, 240.855 457.541, 241.900 458.662 C 242.945 459.784, 245.936 464.378, 248.547 468.871 C 251.157 473.364, 253.394 476.919, 253.516 476.770 C 253.639 476.622, 255.635 473.354, 257.953 469.510 C 260.271 465.665, 264.618 459.140, 267.613 455.010 C 278.699 439.720, 303.196 398.965, 341.252 332.500 C 370.665 281.128, 374.393 274.774, 412.524 211 C 439.374 166.095, 448 151.231, 448 149.872 C 448 148.819, 434.952 148.724, 433.417 149.765 C 431.676 150.947, 420.703 169.554, 380.499 239.500 C 370.699 256.550, 346.395 297.725, 326.489 331 C 277.201 413.393, 258.739 445.687, 256.031 454.250 C 254.674 458.541, 252.334 459.177, 251.412 455.507 C 251.068 454.136, 250.390 453.259, 249.905 453.559 C 249.420 453.859, 249.264 453.477, 249.558 452.710 C 249.852 451.944, 246.089 444.158, 241.197 435.408 C 225.452 407.252, 213.937 387.628, 181.991 334.500 C 155.854 291.033, 137.827 260.298, 107.794 208 C 98.160 191.225, 88.642 174.800, 86.642 171.500 C 84.642 168.200, 83.004 164.938, 83.003 164.250 C 83.001 163.283, 88.646 163, 107.905 163 L 132.810 163 135.548 167.750 C 137.054 170.363, 147.979 188.700, 159.825 208.500 C 171.671 228.300, 181.974 245.625, 182.719 247 C 183.465 248.375, 188.445 256.734, 193.787 265.576 C 199.129 274.418, 210.700 294.321, 219.500 309.806 C 228.300 325.291, 235.811 337.970, 236.192 337.980 C 236.573 337.991, 238.454 335.214, 240.373 331.810 L 243.861 325.619 241.229 321.060 C 239.781 318.552, 235.463 311.325, 231.634 305 C 222.165 289.358, 216.237 279.350, 209.420 267.500 C 206.256 262, 197.582 246.925, 190.146 234 C 168.217 195.887, 145.951 157.798, 143.088 153.500 L 140.424 149.500 99.778 149.239 C 77.423 149.095, 58.917 149.326, 58.654 149.751 M 361.744 157.250 C 356.268 166.146, 312.545 239.314, 296.758 266 C 273.609 305.131, 247.935 350.187, 241.608 362.784 C 239.063 367.853, 236.647 371.970, 236.240 371.934 C 235.833 371.898, 233.396 367.510, 230.824 362.184 C 224.200 348.465, 189.379 288.095, 154.291 229.500 L 124.351 179.500 117.175 179.206 C 113.229 179.045, 110 179.157, 110 179.455 C 110 179.753, 123.662 203.736, 140.359 232.749 C 182.807 306.503, 216.237 362.080, 221.114 367 C 221.932 367.825, 223.704 370.376, 225.051 372.669 C 230.868 382.570, 236.116 391, 236.463 391 C 236.668 391, 237.848 389.313, 239.085 387.250 C 240.321 385.188, 246.382 375.850, 252.555 366.500 C 270.607 339.153, 329.705 239.179, 370.485 167 C 375.302 158.475, 379.439 151.162, 379.680 150.750 C 379.921 150.338, 376.988 150, 373.163 150 L 366.207 150 361.744 157.250 M 65.011 155.656 C 66.271 157.770, 68.149 160.400, 69.184 161.500 C 70.761 163.176, 71.210 163.267, 71.958 162.062 C 72.531 161.139, 72.341 159.897, 71.425 158.590 C 69.774 156.232, 69.550 154.604, 71 155.500 C 71.550 155.840, 71.993 155.754, 71.985 155.309 C 71.950 153.461, 70.279 152.480, 66.610 152.156 L 62.721 151.812 65.011 155.656 M 372.618 155.160 C 372.270 156.898, 372.214 158.548, 372.493 158.826 C 372.772 159.105, 373 158.725, 373 157.981 C 373 157.237, 373.978 155.587, 375.174 154.314 C 377.328 152.022, 377.329 152, 375.299 152 C 373.799 152, 373.081 152.847, 372.618 155.160 M 432.301 155.750 C 424.659 169.614, 422.009 175.205, 422.615 176.186 C 423.043 176.879, 422.857 177.030, 422.131 176.581 C 421.260 176.043, 421.129 176.956, 421.629 180.080 C 422.120 183.153, 421.990 184.112, 421.152 183.594 C 420.479 183.178, 420 183.504, 420 184.379 C 420 185.259, 420.824 185.814, 422 185.725 C 423.100 185.642, 424 185.252, 424 184.859 C 424 184.465, 424.593 183.548, 425.318 182.821 C 426.639 181.497, 444 153.263, 444 152.438 C 444 152.197, 441.833 152, 439.184 152 C 434.653 152, 434.246 152.222, 432.301 155.750" stroke="none" fill="#caa45c" fill-rule="evenodd"/></svg>